<mxfile host="Electron" modified="2023-08-22T12:30:45.964Z" agent="Mozilla/5.0 (Windows NT 10.0; Win64; x64) AppleWebKit/537.36 (KHTML, like Gecko) draw.io/21.6.5 Chrome/114.0.5735.243 Electron/25.3.1 Safari/537.36" etag="rlLQXAGMiSNIRzGcWxz8" version="21.6.5" type="device">
  <diagram name="Page-1" id="oA725dngkJjNdPlK9sbK">
    <mxGraphModel dx="1434" dy="844" grid="1" gridSize="10" guides="1" tooltips="1" connect="1" arrows="1" fold="1" page="1" pageScale="1" pageWidth="827" pageHeight="1169" math="0" shadow="0">
      <root>
        <mxCell id="0" />
        <mxCell id="1" parent="0" />
        <mxCell id="n1_xiN7AYn0LMnuwzj8X-18" value="television" style="swimlane;startSize=20;horizontal=1;containerType=tree;newEdgeStyle={&quot;edgeStyle&quot;:&quot;elbowEdgeStyle&quot;,&quot;startArrow&quot;:&quot;none&quot;,&quot;endArrow&quot;:&quot;none&quot;};fillColor=#f5f5f5;fontColor=#333333;strokeColor=#666666;fontSize=14;" vertex="1" parent="1">
          <mxGeometry x="20" y="120" width="230" height="210" as="geometry" />
        </mxCell>
        <mxCell id="n1_xiN7AYn0LMnuwzj8X-33" value="&lt;p style=&quot;margin:0px;margin-top:4px;text-align:center;text-decoration:underline;&quot;&gt;&lt;b&gt;Attributs&lt;/b&gt;&lt;/p&gt;&lt;hr&gt;&lt;p style=&quot;margin:0px;margin-left:8px;&quot;&gt;marque = String&lt;br&gt;taille = int&lt;br&gt;couleur = chaine&lt;/p&gt;&lt;p style=&quot;margin:0px;margin-left:8px;&quot;&gt;resolution = int&lt;/p&gt;&lt;p style=&quot;margin:0px;margin-left:8px;&quot;&gt;&lt;span style=&quot;background-color: initial;&quot;&gt;volume = int&lt;/span&gt;&lt;/p&gt;&lt;p style=&quot;margin:0px;margin-left:8px;&quot;&gt;&lt;span style=&quot;background-color: initial;&quot;&gt;mise sous tension = Boolean&lt;/span&gt;&lt;br&gt;&lt;/p&gt;&lt;p style=&quot;margin:0px;margin-left:8px;&quot;&gt;chaine = int&lt;/p&gt;" style="verticalAlign=top;align=left;overflow=fill;fontSize=12;fontFamily=Helvetica;html=1;whiteSpace=wrap;fillColor=#ffcc99;strokeColor=#36393d;" vertex="1" parent="n1_xiN7AYn0LMnuwzj8X-18">
          <mxGeometry y="20" width="230" height="140" as="geometry" />
        </mxCell>
        <mxCell id="n1_xiN7AYn0LMnuwzj8X-89" value="mise sous tension() : Boolean&lt;br&gt;changerChaine(numero de chaine) : int&lt;br&gt;changer volume(numero volume) : int" style="rounded=0;whiteSpace=wrap;html=1;" vertex="1" parent="n1_xiN7AYn0LMnuwzj8X-18">
          <mxGeometry y="160" width="230" height="50" as="geometry" />
        </mxCell>
        <mxCell id="n1_xiN7AYn0LMnuwzj8X-39" value="objet" style="swimlane;startSize=20;horizontal=1;containerType=tree;newEdgeStyle={&quot;edgeStyle&quot;:&quot;elbowEdgeStyle&quot;,&quot;startArrow&quot;:&quot;none&quot;,&quot;endArrow&quot;:&quot;none&quot;};fillColor=#f5f5f5;fontColor=#333333;strokeColor=#666666;" vertex="1" parent="1">
          <mxGeometry x="20" y="440" width="370" height="290" as="geometry" />
        </mxCell>
        <mxCell id="n1_xiN7AYn0LMnuwzj8X-40" style="edgeStyle=elbowEdgeStyle;rounded=0;orthogonalLoop=1;jettySize=auto;html=1;startArrow=none;endArrow=none;entryX=0.188;entryY=0.023;entryDx=0;entryDy=0;entryPerimeter=0;" edge="1" parent="n1_xiN7AYn0LMnuwzj8X-39" source="n1_xiN7AYn0LMnuwzj8X-41" target="n1_xiN7AYn0LMnuwzj8X-43">
          <mxGeometry relative="1" as="geometry" />
        </mxCell>
        <UserObject label="&lt;font style=&quot;font-size: 18px;&quot;&gt;&lt;b style=&quot;&quot;&gt;&lt;u style=&quot;&quot;&gt;qualite du compilateur&lt;/u&gt;&lt;/b&gt;&lt;/font&gt;" treeRoot="1" id="n1_xiN7AYn0LMnuwzj8X-41">
          <mxCell style="whiteSpace=wrap;html=1;align=center;treeFolding=1;treeMoving=1;newEdgeStyle={&quot;edgeStyle&quot;:&quot;elbowEdgeStyle&quot;,&quot;startArrow&quot;:&quot;none&quot;,&quot;endArrow&quot;:&quot;none&quot;};fillColor=#cce5ff;strokeColor=#36393d;" vertex="1" parent="n1_xiN7AYn0LMnuwzj8X-39">
            <mxGeometry x="124" y="40" width="120" height="60" as="geometry" />
          </mxCell>
        </UserObject>
        <mxCell id="n1_xiN7AYn0LMnuwzj8X-42" value="&lt;p style=&quot;margin:0px;margin-top:4px;text-align:center;text-decoration:underline;&quot;&gt;&lt;b&gt;Operations&lt;/b&gt;&lt;/p&gt;&lt;hr&gt;&lt;p style=&quot;margin:0px;margin-left:8px;&quot;&gt;Allumer = ()&lt;br&gt;Changer de chaine = ()&lt;br&gt;antenne = ()&lt;/p&gt;&lt;p style=&quot;margin:0px;margin-left:8px;&quot;&gt;auxiliair = ()&lt;/p&gt;" style="verticalAlign=top;align=left;overflow=fill;fontSize=12;fontFamily=Helvetica;html=1;whiteSpace=wrap;fillColor=#ffff88;strokeColor=#36393d;" vertex="1" parent="n1_xiN7AYn0LMnuwzj8X-39">
          <mxGeometry x="210" y="127" width="160" height="133" as="geometry" />
        </mxCell>
        <mxCell id="n1_xiN7AYn0LMnuwzj8X-43" value="&lt;p style=&quot;margin:0px;margin-top:4px;text-align:center;text-decoration:underline;&quot;&gt;&lt;b&gt;Attributs&lt;/b&gt;&lt;/p&gt;&lt;hr&gt;&lt;p style=&quot;margin:0px;margin-left:8px;&quot;&gt;nom= chaine&lt;br&gt;langage prog = chaine&lt;br&gt;&lt;/p&gt;&lt;p style=&quot;margin:0px;margin-left:8px;&quot;&gt;memoir=int&lt;/p&gt;&lt;p style=&quot;margin:0px;margin-left:8px;&quot;&gt;vitesse = int&lt;/p&gt;&lt;p style=&quot;margin:0px;margin-left:8px;&quot;&gt;&lt;br&gt;&lt;/p&gt;" style="verticalAlign=top;align=left;overflow=fill;fontSize=12;fontFamily=Helvetica;html=1;whiteSpace=wrap;fillColor=#ffcc99;strokeColor=#36393d;" vertex="1" parent="n1_xiN7AYn0LMnuwzj8X-39">
          <mxGeometry y="127" width="160" height="133" as="geometry" />
        </mxCell>
        <mxCell id="n1_xiN7AYn0LMnuwzj8X-44" value="" style="edgeStyle=orthogonalEdgeStyle;rounded=0;orthogonalLoop=1;jettySize=auto;html=1;" edge="1" parent="n1_xiN7AYn0LMnuwzj8X-39" source="n1_xiN7AYn0LMnuwzj8X-43">
          <mxGeometry relative="1" as="geometry">
            <mxPoint x="200" y="193.5" as="targetPoint" />
          </mxGeometry>
        </mxCell>
        <mxCell id="n1_xiN7AYn0LMnuwzj8X-51" value="objet" style="swimlane;startSize=20;horizontal=1;containerType=tree;newEdgeStyle={&quot;edgeStyle&quot;:&quot;elbowEdgeStyle&quot;,&quot;startArrow&quot;:&quot;none&quot;,&quot;endArrow&quot;:&quot;none&quot;};fillColor=#f5f5f5;fontColor=#333333;strokeColor=#666666;" vertex="1" parent="1">
          <mxGeometry x="20" y="760" width="370" height="290" as="geometry" />
        </mxCell>
        <mxCell id="n1_xiN7AYn0LMnuwzj8X-52" style="edgeStyle=elbowEdgeStyle;rounded=0;orthogonalLoop=1;jettySize=auto;html=1;startArrow=none;endArrow=none;entryX=0.188;entryY=0.023;entryDx=0;entryDy=0;entryPerimeter=0;" edge="1" parent="n1_xiN7AYn0LMnuwzj8X-51" source="n1_xiN7AYn0LMnuwzj8X-53" target="n1_xiN7AYn0LMnuwzj8X-55">
          <mxGeometry relative="1" as="geometry" />
        </mxCell>
        <UserObject label="&lt;font style=&quot;font-size: 18px;&quot;&gt;&lt;b style=&quot;&quot;&gt;&lt;u style=&quot;&quot;&gt;transaction boursiere&lt;/u&gt;&lt;/b&gt;&lt;/font&gt;" treeRoot="1" id="n1_xiN7AYn0LMnuwzj8X-53">
          <mxCell style="whiteSpace=wrap;html=1;align=center;treeFolding=1;treeMoving=1;newEdgeStyle={&quot;edgeStyle&quot;:&quot;elbowEdgeStyle&quot;,&quot;startArrow&quot;:&quot;none&quot;,&quot;endArrow&quot;:&quot;none&quot;};fillColor=#cce5ff;strokeColor=#36393d;" vertex="1" parent="n1_xiN7AYn0LMnuwzj8X-51">
            <mxGeometry x="124" y="40" width="120" height="60" as="geometry" />
          </mxCell>
        </UserObject>
        <mxCell id="n1_xiN7AYn0LMnuwzj8X-54" value="&lt;p style=&quot;margin:0px;margin-top:4px;text-align:center;text-decoration:underline;&quot;&gt;&lt;b&gt;Operations&lt;/b&gt;&lt;/p&gt;&lt;hr&gt;&lt;p style=&quot;margin:0px;margin-left:8px;&quot;&gt;achat= ()&lt;br&gt;vente = ()&lt;br&gt;= ()&lt;/p&gt;&lt;p style=&quot;margin:0px;margin-left:8px;&quot;&gt;= ()&lt;/p&gt;" style="verticalAlign=top;align=left;overflow=fill;fontSize=12;fontFamily=Helvetica;html=1;whiteSpace=wrap;fillColor=#ffff88;strokeColor=#36393d;" vertex="1" parent="n1_xiN7AYn0LMnuwzj8X-51">
          <mxGeometry x="210" y="127" width="160" height="133" as="geometry" />
        </mxCell>
        <mxCell id="n1_xiN7AYn0LMnuwzj8X-55" value="&lt;p style=&quot;margin:0px;margin-top:4px;text-align:center;text-decoration:underline;&quot;&gt;&lt;b&gt;Attributs&lt;/b&gt;&lt;/p&gt;&lt;hr&gt;&lt;p style=&quot;margin:0px;margin-left:8px;&quot;&gt;nom= chaine&lt;br&gt;type = chaine&lt;br&gt;&lt;/p&gt;&lt;p style=&quot;margin:0px;margin-left:8px;&quot;&gt;intermediaire&lt;/p&gt;&lt;p style=&quot;margin:0px;margin-left:8px;&quot;&gt;&lt;br&gt;&lt;/p&gt;" style="verticalAlign=top;align=left;overflow=fill;fontSize=12;fontFamily=Helvetica;html=1;whiteSpace=wrap;fillColor=#ffcc99;strokeColor=#36393d;" vertex="1" parent="n1_xiN7AYn0LMnuwzj8X-51">
          <mxGeometry y="127" width="160" height="133" as="geometry" />
        </mxCell>
        <mxCell id="n1_xiN7AYn0LMnuwzj8X-56" value="" style="edgeStyle=orthogonalEdgeStyle;rounded=0;orthogonalLoop=1;jettySize=auto;html=1;" edge="1" parent="n1_xiN7AYn0LMnuwzj8X-51" source="n1_xiN7AYn0LMnuwzj8X-55">
          <mxGeometry relative="1" as="geometry">
            <mxPoint x="200" y="193.5" as="targetPoint" />
          </mxGeometry>
        </mxCell>
        <mxCell id="n1_xiN7AYn0LMnuwzj8X-57" value="Objet" style="swimlane;startSize=20;horizontal=1;containerType=tree;newEdgeStyle={&quot;edgeStyle&quot;:&quot;elbowEdgeStyle&quot;,&quot;startArrow&quot;:&quot;none&quot;,&quot;endArrow&quot;:&quot;none&quot;};fillColor=#f5f5f5;fontColor=#333333;strokeColor=#666666;" vertex="1" parent="1">
          <mxGeometry x="480" y="450" width="475" height="560" as="geometry" />
        </mxCell>
        <mxCell id="n1_xiN7AYn0LMnuwzj8X-58" style="edgeStyle=elbowEdgeStyle;rounded=0;orthogonalLoop=1;jettySize=auto;html=1;startArrow=none;endArrow=none;entryX=0.188;entryY=0.023;entryDx=0;entryDy=0;entryPerimeter=0;" edge="1" parent="n1_xiN7AYn0LMnuwzj8X-57" source="n1_xiN7AYn0LMnuwzj8X-59" target="n1_xiN7AYn0LMnuwzj8X-61">
          <mxGeometry relative="1" as="geometry" />
        </mxCell>
        <UserObject label="&lt;font style=&quot;font-size: 18px;&quot;&gt;&lt;b style=&quot;&quot;&gt;&lt;u style=&quot;&quot;&gt;bouteille&lt;/u&gt;&lt;/b&gt;&lt;/font&gt;" treeRoot="1" id="n1_xiN7AYn0LMnuwzj8X-59">
          <mxCell style="whiteSpace=wrap;html=1;align=center;treeFolding=1;treeMoving=1;newEdgeStyle={&quot;edgeStyle&quot;:&quot;elbowEdgeStyle&quot;,&quot;startArrow&quot;:&quot;none&quot;,&quot;endArrow&quot;:&quot;none&quot;};fillColor=#cce5ff;strokeColor=#36393d;" vertex="1" parent="n1_xiN7AYn0LMnuwzj8X-57">
            <mxGeometry x="124" y="40" width="120" height="60" as="geometry" />
          </mxCell>
        </UserObject>
        <mxCell id="n1_xiN7AYn0LMnuwzj8X-60" value="&lt;p style=&quot;margin:0px;margin-top:4px;text-align:center;text-decoration:underline;&quot;&gt;&lt;b&gt;Operations&lt;/b&gt;&lt;/p&gt;&lt;hr&gt;&lt;p style=&quot;margin:0px;margin-left:8px;&quot;&gt;ouvrir= ()&lt;br&gt;fermer = ()&lt;/p&gt;&lt;p style=&quot;margin:0px;margin-left:8px;&quot;&gt;vider= ()&lt;/p&gt;&lt;p style=&quot;margin:0px;margin-left:8px;&quot;&gt;remplir=()&lt;/p&gt;&lt;p style=&quot;margin:0px;margin-left:8px;&quot;&gt;melanger=()&lt;/p&gt;" style="verticalAlign=top;align=left;overflow=fill;fontSize=12;fontFamily=Helvetica;html=1;whiteSpace=wrap;fillColor=#ffff88;strokeColor=#36393d;" vertex="1" parent="n1_xiN7AYn0LMnuwzj8X-57">
          <mxGeometry x="210" y="127" width="160" height="133" as="geometry" />
        </mxCell>
        <mxCell id="n1_xiN7AYn0LMnuwzj8X-61" value="&lt;p style=&quot;margin:0px;margin-top:4px;text-align:center;text-decoration:underline;&quot;&gt;&lt;b&gt;Attributs&lt;/b&gt;&lt;/p&gt;&lt;hr&gt;&lt;p style=&quot;margin:0px;margin-left:8px;&quot;&gt;Marque = chaine&lt;br&gt;volume= double&lt;/p&gt;&lt;p style=&quot;margin:0px;margin-left:8px;&quot;&gt;&lt;span style=&quot;background-color: initial;&quot;&gt;remplie = boolean&lt;/span&gt;&lt;br&gt;&lt;/p&gt;&lt;p style=&quot;margin:0px;margin-left:8px;&quot;&gt;vide= boolean&lt;/p&gt;&lt;p style=&quot;margin:0px;margin-left:8px;&quot;&gt;type = chaine(eau plate,gaseuse,alcool,produit&lt;/p&gt;&lt;p style=&quot;margin:0px;margin-left:8px;&quot;&gt;&lt;br&gt;&lt;/p&gt;&lt;p style=&quot;margin:0px;margin-left:8px;&quot;&gt;&lt;br&gt;&lt;/p&gt;" style="verticalAlign=top;align=left;overflow=fill;fontSize=12;fontFamily=Helvetica;html=1;whiteSpace=wrap;fillColor=#ffcc99;strokeColor=#36393d;" vertex="1" parent="n1_xiN7AYn0LMnuwzj8X-57">
          <mxGeometry y="127" width="160" height="163" as="geometry" />
        </mxCell>
        <mxCell id="n1_xiN7AYn0LMnuwzj8X-62" value="" style="edgeStyle=orthogonalEdgeStyle;rounded=0;orthogonalLoop=1;jettySize=auto;html=1;" edge="1" parent="n1_xiN7AYn0LMnuwzj8X-57" source="n1_xiN7AYn0LMnuwzj8X-61">
          <mxGeometry relative="1" as="geometry">
            <mxPoint x="200" y="193.5" as="targetPoint" />
          </mxGeometry>
        </mxCell>
        <mxCell id="n1_xiN7AYn0LMnuwzj8X-45" value="Objet" style="swimlane;startSize=20;horizontal=1;containerType=tree;newEdgeStyle={&quot;edgeStyle&quot;:&quot;elbowEdgeStyle&quot;,&quot;startArrow&quot;:&quot;none&quot;,&quot;endArrow&quot;:&quot;none&quot;};fillColor=#f5f5f5;fontColor=#333333;strokeColor=#666666;" vertex="1" parent="n1_xiN7AYn0LMnuwzj8X-57">
          <mxGeometry x="105" y="270" width="370" height="290" as="geometry" />
        </mxCell>
        <mxCell id="n1_xiN7AYn0LMnuwzj8X-46" style="edgeStyle=elbowEdgeStyle;rounded=0;orthogonalLoop=1;jettySize=auto;html=1;startArrow=none;endArrow=none;entryX=0.188;entryY=0.023;entryDx=0;entryDy=0;entryPerimeter=0;" edge="1" parent="n1_xiN7AYn0LMnuwzj8X-45" source="n1_xiN7AYn0LMnuwzj8X-47" target="n1_xiN7AYn0LMnuwzj8X-49">
          <mxGeometry relative="1" as="geometry" />
        </mxCell>
        <UserObject label="&lt;font style=&quot;font-size: 18px;&quot;&gt;&lt;b style=&quot;&quot;&gt;&lt;u style=&quot;&quot;&gt;la deuxieme gerre mondial&lt;/u&gt;&lt;/b&gt;&lt;/font&gt;" treeRoot="1" id="n1_xiN7AYn0LMnuwzj8X-47">
          <mxCell style="whiteSpace=wrap;html=1;align=center;treeFolding=1;treeMoving=1;newEdgeStyle={&quot;edgeStyle&quot;:&quot;elbowEdgeStyle&quot;,&quot;startArrow&quot;:&quot;none&quot;,&quot;endArrow&quot;:&quot;none&quot;};fillColor=#cce5ff;strokeColor=#36393d;" vertex="1" parent="n1_xiN7AYn0LMnuwzj8X-45">
            <mxGeometry x="124" y="40" width="120" height="60" as="geometry" />
          </mxCell>
        </UserObject>
        <mxCell id="n1_xiN7AYn0LMnuwzj8X-48" value="&lt;p style=&quot;margin:0px;margin-top:4px;text-align:center;text-decoration:underline;&quot;&gt;&lt;b&gt;Operations&lt;/b&gt;&lt;/p&gt;&lt;hr&gt;&lt;p style=&quot;margin:0px;margin-left:8px;&quot;&gt;bombardement = ()&lt;br&gt;terrain gagner= ()&lt;br&gt;terrain recuperer= ()&lt;/p&gt;&lt;p style=&quot;margin:0px;margin-left:8px;&quot;&gt;auxiliair = ()&lt;/p&gt;" style="verticalAlign=top;align=left;overflow=fill;fontSize=12;fontFamily=Helvetica;html=1;whiteSpace=wrap;fillColor=#ffff88;strokeColor=#36393d;" vertex="1" parent="n1_xiN7AYn0LMnuwzj8X-45">
          <mxGeometry x="210" y="127" width="160" height="133" as="geometry" />
        </mxCell>
        <mxCell id="n1_xiN7AYn0LMnuwzj8X-49" value="&lt;p style=&quot;margin:0px;margin-top:4px;text-align:center;text-decoration:underline;&quot;&gt;&lt;b&gt;Attributs&lt;/b&gt;&lt;/p&gt;&lt;hr&gt;&lt;p style=&quot;margin:0px;margin-left:8px;&quot;&gt;pays allie = chaine&lt;br&gt;&lt;/p&gt;&lt;p style=&quot;margin:0px;margin-left:8px;&quot;&gt;pays adverssaire = chaine&lt;/p&gt;&lt;p style=&quot;margin:0px;margin-left:8px;&quot;&gt;arme = chaine&lt;/p&gt;" style="verticalAlign=top;align=left;overflow=fill;fontSize=12;fontFamily=Helvetica;html=1;whiteSpace=wrap;fillColor=#ffcc99;strokeColor=#36393d;" vertex="1" parent="n1_xiN7AYn0LMnuwzj8X-45">
          <mxGeometry y="127" width="160" height="133" as="geometry" />
        </mxCell>
        <mxCell id="n1_xiN7AYn0LMnuwzj8X-50" value="" style="edgeStyle=orthogonalEdgeStyle;rounded=0;orthogonalLoop=1;jettySize=auto;html=1;" edge="1" parent="n1_xiN7AYn0LMnuwzj8X-45" source="n1_xiN7AYn0LMnuwzj8X-49">
          <mxGeometry relative="1" as="geometry">
            <mxPoint x="200" y="193.5" as="targetPoint" />
          </mxGeometry>
        </mxCell>
        <mxCell id="n1_xiN7AYn0LMnuwzj8X-81" value="" style="endArrow=classic;html=1;rounded=0;exitX=1;exitY=0.34;exitDx=0;exitDy=0;fillColor=#d80073;strokeColor=#A50040;entryX=-0.01;entryY=0.208;entryDx=0;entryDy=0;entryPerimeter=0;exitPerimeter=0;" edge="1" parent="1" source="n1_xiN7AYn0LMnuwzj8X-33" target="n1_xiN7AYn0LMnuwzj8X-83">
          <mxGeometry width="50" height="50" relative="1" as="geometry">
            <mxPoint x="370" y="490" as="sourcePoint" />
            <mxPoint x="510" y="240" as="targetPoint" />
          </mxGeometry>
        </mxCell>
        <mxCell id="n1_xiN7AYn0LMnuwzj8X-82" value="television du salon : &lt;b&gt;&lt;font style=&quot;font-size: 14px;&quot;&gt;Television&lt;/font&gt;&lt;/b&gt;" style="rounded=0;whiteSpace=wrap;html=1;fillColor=#dae8fc;strokeColor=#6c8ebf;" vertex="1" parent="1">
          <mxGeometry x="310" y="120" width="300" height="40" as="geometry" />
        </mxCell>
        <mxCell id="n1_xiN7AYn0LMnuwzj8X-83" value="marque = Sony&lt;br&gt;Résolution = 1080&lt;br&gt;Allumage = True&lt;br&gt;Chaine = 6&lt;br&gt;Volume = 14&lt;br&gt;N° de serie = sam2215366" style="rounded=0;whiteSpace=wrap;html=1;fillColor=#fff2cc;strokeColor=#d6b656;" vertex="1" parent="1">
          <mxGeometry x="310" y="160" width="300" height="130" as="geometry" />
        </mxCell>
      </root>
    </mxGraphModel>
  </diagram>
</mxfile>
